#!OML:ASF G:\JayActor3\Patient Classification 1\Patient 1\Session 6\male.ASF
:FULLY-SPECIFIED
:DEGREES
1324
root 2.93727 15.7097 -22.9923 537.711 -38.8357 -546.546
lowerback -6.2766 3.36165 0.0954768
upperback -3.80529 4.13995 -5.84871
thorax 0.0219801 1.8668 -5.85542
lowerneck -0.446549 -4.27802 -9.55787
upperneck 18.7566 -8.65797 12.6306
head 6.66109 -4.4867 5.10796
rclavicle -8.90555e-014 4.13472e-014
rhumerus 18.1405 9.16371 -87.286
rradius 146.482
rwrist -29.1913
rhand 21.6355 -41.6692
rfingers 7.12502
rthumb 46.0555 -64.7406
lclavicle -8.90555e-014 4.13472e-014
lhumerus -48.3487 36.4647 49.7677
lradius 25.9972
lwrist 24.8653
lhand -16.6929 9.94321
lfingers 7.12502
lthumb 9.53161 39.7076
rfemur -22.6798 -4.60109 9.36525
rtibia 54.1738
rfoot -23.4941 -14.7182
rtoes -4.49551
lfemur 2.93746 26.5972 -23.7112
ltibia 29.1059
lfoot -24.6616 -6.54562
ltoes -2.30479
1325
root 2.93789 15.71 -22.9914 537.716 -38.909 -546.54
lowerback -6.27366 3.37301 0.0990627
upperback -3.80513 4.15438 -5.86522
thorax 0.0234293 1.87366 -5.87399
lowerneck -0.414461 -4.32186 -9.62284
upperneck 18.5245 -8.7057 12.7869
head 6.59627 -4.50241 5.1665
rclavicle -4.69132e-014 1.27222e-014
rhumerus 18.3717 9.05756 -87.2268
rradius 146.496
rwrist -29.1403
rhand 21.7383 -41.6901
rfingers 7.12502
rthumb 46.1509 -64.7215
lclavicle -4.69132e-014 1.27222e-014
lhumerus -48.5144 36.6199 49.587
lradius 25.7267
lwrist 24.7232
lhand -16.6873 9.97711
lfingers 7.12502
lthumb 9.53707 39.7413
rfemur -22.6708 -4.62062 9.37042
rtibia 54.1704
rfoot -23.5158 -14.7583
rtoes -4.47083
lfemur 2.91677 26.58 -23.7029
ltibia 29.1184
lfoot -24.6564 -6.60564
ltoes -2.2564
1326
root 2.93852 15.7104 -22.9906 537.723 -38.9794 -546.532
lowerback -6.26916 3.38467 0.104565
upperback -3.80707 4.16895 -5.88083
thorax 0.0219393 1.88048 -5.89286
lowerneck -0.375043 -4.36643 -9.6895
upperneck 18.2901 -8.75371 12.939
head 6.52961 -4.51924 5.22406
rclavicle 2.0276e-014 -5.24792e-014
rhumerus 18.5967 8.95607 -87.1649
rradius 146.51
rwrist -29.0915
rhand 21.8288 -41.7088
rfingers 7.12502
rthumb 46.2348 -64.705
lclavicle 2.0276e-014 -5.24792e-014
lhumerus -48.7052 36.7951 49.3751
lradius 25.461
lwrist 24.5822
lhand -16.6721 10.0158
lfingers 7.12502
lthumb 9.55171 39.7793
rfemur -22.6629 -4.6388 9.37667
rtibia 54.1652
rfoot -23.5326 -14.8009
rtoes -4.4426
lfemur 2.89365 26.558 -23.6965
ltibia 29.1307
lfoot -24.6509 -6.65667
ltoes -2.2108
1327
root 2.93907 15.7109 -22.9899 537.73 -39.0472 -546.53
lowerback -6.26181 3.39685 0.107028
upperback -3.81009 4.18408 -5.89731
thorax 0.0176572 1.88751 -5.91107
lowerneck -0.328968 -4.41071 -9.75389
upperneck 18.054 -8.8005 13.0848
head 6.46107 -4.53628 5.27937
rclavicle -6.32135e-014 1.74931e-014
rhumerus 18.814 8.85949 -87.1017
rradius 146.526
rwrist -29.0362
rhand 21.908 -41.7212
rfingers 7.12502
rthumb 46.3082 -64.6863
lclavicle -6.32135e-014 1.74931e-014
lhumerus -48.9227 37.0439 49.0823
lradius 25.1533
lwrist 24.3722
lhand -16.6387 10.0387
lfingers 7.12502
lthumb 9.58399 39.8008
rfemur -22.6527 -4.65228 9.37901
rtibia 54.159
rfoot -23.5509 -14.8429
rtoes -4.42163
lfemur 2.87326 26.5383 -23.6931
ltibia 29.1423
lfoot -24.647 -6.70489
ltoes -2.1723
1328
root 2.9397 15.7116 -22.9893 537.737 -39.1121 -546.52
lowerback -6.24876 3.4089 0.112605
upperback -3.81887 4.19835 -5.91109
thorax 0.00419347 1.89387 -5.92878
lowerneck -0.277746 -4.45496 -9.8156
upperneck 17.8199 -8.8464 13.2215
head 6.39196 -4.55379 5.33139
rclavicle 8.54774e-014 3.97569e-014
rhumerus 19.0204 8.76872 -87.0422
rradius 146.545
rwrist -28.974
rhand 21.9807 -41.7315
rfingers 7.12502
rthumb 46.3756 -64.668
lclavicle 8.54774e-014 3.97569e-014
lhumerus -49.1714 37.3436 48.7224
lradius 24.8193
lwrist 24.1125
lhand -16.6053 10.0534
lfingers 7.12502
lthumb 9.61614 39.8139
rfemur -22.6454 -4.65611 9.38886
rtibia 54.1514
rfoot -23.5701 -14.8904
rtoes -4.40722
lfemur 2.84751 26.5153 -23.6868
ltibia 29.1553
lfoot -24.6449 -6.74624
ltoes -2.1454
1329
root 2.94034 15.7121 -22.9887 537.744 -39.1751 -546.512
lowerback -6.22818 3.42055 0.115646
upperback -3.83393 4.21138 -5.92394
thorax -0.0203243 1.89928 -5.9448
lowerneck -0.218044 -4.49969 -9.87197
upperneck 17.5885 -8.89203 13.3446
head 6.3217 -4.5723 5.37827
rclavicle -2.42517e-014 3.33958e-014
rhumerus 19.2122 8.68308 -86.9905
rradius 146.569
rwrist -28.9015
rhand 22.0536 -41.7367
rfingers 7.12502
rthumb 46.4432 -64.6444
lclavicle -2.42517e-014 3.33958e-014
lhumerus -49.4555 37.6804 48.2993
lradius 24.4685
lwrist 23.813
lhand -16.5659 10.0701
lfingers 7.12502
lthumb 9.65417 39.8289
rfemur -22.6384 -4.653 9.39815
rtibia 54.1438
rfoot -23.5926 -14.9387
rtoes -4.38319
lfemur 2.82115 26.4956 -23.6802
ltibia 29.1707
lfoot -24.6453 -6.78914
ltoes -2.12702
1330
root 2.94102 15.7126 -22.9881 537.752 -39.2348 -546.5
lowerback -6.20631 3.43354 0.121762
upperback -3.85089 4.22591 -5.93628
thorax -0.0471925 1.90535 -5.96206
lowerneck -0.157859 -4.54748 -9.92356
upperneck 17.3592 -8.94017 13.4561
head 6.25194 -4.59257 5.42026
rclavicle 5.76476e-014 -1.27222e-014
rhumerus 19.4004 8.59836 -86.9432
rradius 146.595
rwrist -28.8202
rhand 22.1291 -41.7453
rfingers 7.12502
rthumb 46.5131 -64.6231
lclavicle 5.76476e-014 -1.27222e-014
lhumerus -49.7632 38.0398 47.8356
lradius 24.1155
lwrist 23.4883
lhand -16.5395 10.0876
lfingers 7.12502
lthumb 9.67963 39.8452
rfemur -22.6346 -4.64311 9.41156
rtibia 54.1367
rfoot -23.6238 -14.9794
rtoes -4.33931
lfemur 2.78991 26.4761 -23.6723
ltibia 29.1896
lfoot -24.6478 -6.82811
ltoes -2.11439
1331
root 2.94177 15.713 -22.9876 537.76 -39.2921 -546.484
lowerback -6.1848 3.44649 0.130053
upperback -3.86975 4.24021 -5.94687
thorax -0.0758083 1.91124 -5.9788
lowerneck -0.10001 -4.59372 -9.97296
upperneck 17.1352 -8.98496 13.5585
head 6.18368 -4.61163 5.45912
rclavicle 1.05753e-013 -7.4743e-014
rhumerus 19.5835 8.51786 -86.9023
rradius 146.625
rwrist -28.7295
rhand 22.2096 -41.7631
rfingers 7.12502
rthumb 46.5877 -64.6088
lclavicle 1.05753e-013 -7.4743e-014
lhumerus -50.087 38.3679 47.3829
lradius 23.7984
lwrist 23.2024
lhand -16.5222 10.1151
lfingers 7.12502
lthumb 9.69635 39.8719
rfemur -22.6353 -4.63207 9.42878
rtibia 54.131
rfoot -23.6542 -15.0206
rtoes -4.30026
lfemur 2.75515 26.4583 -23.6623
ltibia 29.2108
lfoot -24.6506 -6.86742
ltoes -2.09862
1332
root 2.94254 15.7133 -22.9873 537.773 -39.347 -546.473
lowerback -6.16687 3.45981 0.136824
upperback -3.89037 4.25496 -5.95668
thorax -0.10437 1.91729 -5.99369
lowerneck -0.0316931 -4.63477 -10.0335
upperneck 16.9095 -9.02336 13.6652
head 6.11303 -4.62875 5.50218
rclavicle 1.10127e-013 -2.38542e-014
rhumerus 19.7631 8.44199 -86.8577
rradius 146.655
rwrist -28.6371
rhand 22.2888 -41.786
rfingers 7.12502
rthumb 46.661 -64.6001
lclavicle 1.10127e-013 -2.38542e-014
lhumerus -50.4248 38.6527 46.9552
lradius 23.5259
lwrist 22.9677
lhand -16.5181 10.1409
lfingers 7.12502
lthumb 9.70035 39.8975
rfemur -22.641 -4.62435 9.44351
rtibia 54.1275
rfoot -23.6818 -15.061
rtoes -4.26351
lfemur 2.71744 26.4414 -23.6566
ltibia 29.2321
lfoot -24.6526 -6.90642
ltoes -2.0816
1333
root 2.94337 15.7136 -22.987 537.789 -39.3984 -546.467
lowerback -6.15167 3.47503 0.142855
upperback -3.91042 4.27232 -5.96733
thorax -0.130535 1.92466 -6.00871
lowerneck 0.0437742 -4.67236 -10.1046
upperneck 16.6805 -9.05778 13.7794
head 6.04055 -4.6447 5.55005
rclavicle -4.77083e-015 6.67916e-014
rhumerus 19.9422 8.36866 -86.8053
rradius 146.684
rwrist -28.5406
rhand 22.3608 -41.8033
rfingers 7.12502
rthumb 46.7276 -64.5886
lclavicle -4.77083e-015 6.67916e-014
lhumerus -50.7655 38.8908 46.5611
lradius 23.2959
lwrist 22.787
lhand -16.5047 10.1661
lfingers 7.12502
lthumb 9.7132 39.9221
rfemur -22.649 -4.61744 9.45399
rtibia 54.1271
rfoot -23.7126 -15.0918
rtoes -4.20545
lfemur 2.68126 26.4291 -23.654
ltibia 29.2518
lfoot -24.6536 -6.94722
ltoes -2.0568
1334
root 2.94417 15.7139 -22.9869 537.81 -39.4472 -546.468
lowerback -6.14237 3.49167 0.147098
upperback -3.92689 4.29205 -5.97923
thorax -0.149511 1.93339 -6.02341
lowerneck 0.126552 -4.70781 -10.1884
upperneck 16.4426 -9.08942 13.9036
head 5.96481 -4.65998 5.60381
rclavicle -1.95207e-013 0
rhumerus 20.1246 8.29427 -86.7498
rradius 146.71
rwrist -28.4454
rhand 22.4337 -41.8121
rfingers 7.12502
rthumb 46.7951 -64.568
lclavicle -1.95207e-013 0
lhumerus -51.096 39.0713 46.2221
lradius 23.1166
lwrist 22.6719
lhand -16.4898 10.2003
lfingers 7.12502
lthumb 9.72765 39.9556
rfemur -22.6594 -4.61675 9.45801
rtibia 54.1296
rfoot -23.7381 -15.1215
rtoes -4.15866
lfemur 2.64798 26.4185 -23.6573
ltibia 29.2667
lfoot -24.6544 -6.98623
ltoes -2.0347
